<?xml version="1.0" encoding="UTF-8"?>
<svg width="105px" height="158px" viewBox="0 0 105 158" version="1.1" xmlns="http://www.w3.org/2000/svg" xmlns:xlink="http://www.w3.org/1999/xlink">
    <!-- Generator: Sketch 43.2 (39069) - http://www.bohemiancoding.com/sketch -->
    <title>Slice 2</title>
    <desc>Created with Sketch.</desc>
    <defs></defs>
    <g id="Page-1" stroke="none" stroke-width="1" fill="none" fill-rule="evenodd">
        <path d="M12.3010983,108.932249 C14.5518471,114.033947 17.5528455,118.685494 21.4541435,122.586792 C25.5054914,126.48809 30.006989,129.639138 35.1086864,131.739837 C40.3604336,133.990586 46.0623306,135.040936 51.7642276,135.040936 C57.4661247,135.040936 63.1680217,133.990586 68.4197689,131.739837 C73.5214663,129.639138 78.0229639,126.48809 82.0743118,122.586792 C85.9756098,118.685494 88.9766082,114.033947 91.227357,108.932249 C93.4781058,103.680502 94.5284553,98.128655 94.5284553,92.276708 L94.5284553,19.5024961 L72.0209671,12 L72.0209671,54.6141777 C70.8205677,54.013978 69.6201683,53.4137783 68.4197689,52.9636286 C63.1680217,50.7128798 57.6161746,49.6625303 51.7642276,49.6625303 C46.0623306,49.6625303 40.3604336,50.7128798 35.1086864,52.9636286 C30.006989,55.0643275 25.5054914,58.2153758 21.4541435,62.1166738 C17.5528455,66.0179718 14.5518471,70.6695193 12.3010983,75.7712167 C10.2003994,81.0229639 9,86.574811 9,92.276708 C9,98.128655 10.2003994,103.680502 12.3010983,108.932249 L12.3010983,108.932249 Z M51.7642276,72.0199686 C62.8679218,72.0199686 72.0209671,81.1730138 72.0209671,92.276708 C72.0209671,103.530452 62.8679218,112.533447 51.7642276,112.533447 C40.6605334,112.533447 31.5074882,103.530452 31.5074882,92.276708 C31.5074882,81.1730138 40.6605334,72.0199686 51.7642276,72.0199686 Z" id="path457799" fill="#FFFFFF" fill-rule="nonzero"></path>
    </g>
</svg>