<svg height="15" viewBox="0 0 26 15" width="26" xmlns="http://www.w3.org/2000/svg"><g fill="none" fill-rule="evenodd"><path d="m12.8749892 5.13115116c1.0357838 0 2.0234324.2033721 2.9264054.56930233l2.5982432-4.46755814c-1.7209189-.80895349-3.6108378-1.2327907-5.5246486-1.2327907s-3.80372974.42383721-5.52429731 1.2327907l2.59789189 4.46755814c.90297302-.36593023 1.89062162-.56930233 2.92640542-.56930233" fill="#ccc"/><path d="m3.32603243 7.61413953c.35767568-.72732558 1.17140541-1.11523255 1.96686487-.93593023l2.30416216.5183721c.16935135-.15627907.34397297-.30662791.52667568-.44790698l-2.5978919-4.46755814c-3.17129729 2.18511628-5.20843243 5.68674419-5.5257027 9.49848842h5.19754054c.03654054-.2668605.08854054-.5288373.15178378-.7862791l-1.55683783-1.26418607c-.63102703-.51174418-.82427027-1.38802325-.4665946-2.115" fill="#5b8200"/><path d="m20.2241351 2.2810814-2.5978919 4.46755813c1.5621082 1.2055814 2.6463784 2.99093024 2.9260541 5.03093027h5.1978919c-.3176216-3.81174422-2.3547568-7.31337213-5.5260541-9.4984884" fill="#ccc"/><path d="m14.2257595 10.4380465c-.0305676-.0156977-.0635946-.0275581-.0952163-.0418605-.0453243-.0195348-.1623243-.0624418-.3014594-.1046511-.1714595-.0516279-8.89305407-2.08255816-8.89305407-2.08255816-.07659459-.01848837-.1437027.02790698-.17883784.09174419-.00105405.00174419-.00421621.00837209-.00456757.00872093-.00035135.00034884-.00351351.00662791-.00421621.00872093-.03091892.06627907-.02845946.1472093.03197297.19744186 0 0 6.83272972 5.75162795 6.97678382 5.85767445.1166486.0861628.221.1538372.2642162.1786046.0302162.0167442.0593784.0359303.0902973.0509303.0084324.0045348.0161621.0097674.0249459.0139534 1.1577027.5794186 2.5694325.1172093 3.1526757-1.0322093l.0024595-.0048837c.5835946-1.1494186.118054-2.5506977-1.04-3.1301163-.0084325-.004186-.0172163-.0073255-.026-.0115116" fill="#5b8200"/></g></svg>