<?xml version="1.0" encoding="UTF-8"?>
<svg width="512px" height="84px" viewBox="0 0 512 84" version="1.1" xmlns="http://www.w3.org/2000/svg" xmlns:xlink="http://www.w3.org/1999/xlink">
    <!-- Generator: Sketch 43.2 (39069) - http://www.bohemiancoding.com/sketch -->
    <title>Slice 3</title>
    <desc>Created with Sketch.</desc>
    <defs></defs>
    <g id="Page-1" stroke="none" stroke-width="1" fill="none" fill-rule="evenodd">
        <g id="logo" transform="translate(12.000000, 2.000000)" fill-rule="nonzero" fill="#FFFFFF">
            <path d="M1.68959465,49.6344124 C2.841591,52.2467499 4.37758614,54.628587 6.37437982,56.6262569 C8.44797325,58.6239267 10.751966,60.2374293 13.3631577,61.3130977 C16.0511492,62.4655995 18.9695399,63.0034337 21.8879307,63.0034337 C24.8063215,63.0034337 27.7247122,62.4655995 30.4127037,61.3130977 C33.0238954,60.2374293 35.3278881,58.6239267 37.4014816,56.6262569 C39.3982753,54.628587 40.9342704,52.2467499 42.0862667,49.6344124 C43.2382631,46.9452414 43.7758614,44.1024036 43.7758614,41.1058988 L43.7758614,3.84167279 L32.2558979,0 L32.2558979,21.8207014 C31.6414998,21.5133676 31.0271018,21.2060338 30.4127037,20.9755334 C27.7247122,19.8230316 24.8831212,19.2851974 21.8879307,19.2851974 C18.9695399,19.2851974 16.0511492,19.8230316 13.3631577,20.9755334 C10.751966,22.0512018 8.44797325,23.6647044 6.37437982,25.6623742 C4.37758614,27.6600441 2.841591,30.0418812 1.68959465,32.6542187 C0.614398055,35.3433896 0,38.1862275 0,41.1058988 C0,44.1024036 0.614398055,46.9452414 1.68959465,49.6344124 L1.68959465,49.6344124 Z M21.8879307,30.7333823 C27.5711127,30.7333823 32.2558979,35.4202231 32.2558979,41.1058988 C32.2558979,46.868408 27.5711127,51.4784153 21.8879307,51.4784153 C16.2047487,51.4784153 11.5199635,46.868408 11.5199635,41.1058988 C11.5199635,35.4202231 16.2047487,30.7333823 21.8879307,30.7333823 Z" id="path457799"></path>
            <polygon id="path457801" points="50.2105263 62.9375551 61.8072896 62.9375551 61.8072896 18.6046512 50.2105263 22.4463239"></polygon>
            <polygon id="path457803" points="80.5848152 63.2613511 90.1847848 63.2613511 107.61833 20.4651163 95.0999693 20.4651163 85.4231999 45.3591559 75.8232303 20.4651163 63.2280702 20.4651163"></polygon>
            <polygon id="path457805" points="108.789474 62.9375551 120.386237 62.9375551 120.386237 18.6046512 108.789474 22.4463239"></polygon>
            <path d="M159.480036,26.3730613 C155.793647,22.7618889 150.955263,20.764219 145.809679,20.764219 C143.044888,20.764219 140.433696,21.3020532 138.052904,22.3777216 L138.052904,19.5348837 L126.53294,19.5348837 L126.53294,38.3590804 C126.45614,38.973748 126.45614,39.5115822 126.45614,40.1262499 L126.53294,40.1262499 L126.53294,62.7921193 L138.052904,62.7921193 L138.052904,38.973748 C138.590502,35.2089087 141.816092,32.2892374 145.809679,32.2892374 C150.110465,32.2892374 153.643254,35.8235763 153.643254,40.1262499 L153.643254,62.7921193 L165.163218,62.7921193 L165.163218,40.1262499 C165.163218,34.9015749 163.089624,30.0610672 159.480036,26.3730613 L159.480036,26.3730613 Z" id="path457807"></path>
            <path d="M205.085329,25.8352271 C201.014942,21.7630539 195.562159,19.5348837 189.878977,19.5348837 C184.118996,19.5348837 178.666213,21.7630539 174.595826,25.8352271 C170.525439,29.9074002 168.298246,35.2857421 168.298246,41.0482513 C168.298246,46.8107605 170.525439,52.1891024 174.595826,56.2612756 C178.666213,60.3334487 184.118996,62.5616189 189.878977,62.5616189 C193.258167,62.5616189 196.560556,61.7932844 199.478947,60.3334487 C198.326951,64.5592888 194.410163,67.632627 189.878977,67.632627 C187.267786,67.632627 184.810193,66.6337921 182.966999,64.8666226 L174.979824,73.2414693 C179.050212,77.083142 184.272595,79.1576454 189.802178,79.1576454 C195.562159,79.1576454 201.014942,76.9294751 205.085329,72.857302 C209.155716,68.7851288 211.382909,63.4067869 211.382909,57.6442778 L211.382909,41.0482513 C211.382909,35.2857421 209.155716,29.9074002 205.085329,25.8352271 L205.085329,25.8352271 Z M189.878977,51.0366006 C184.349395,51.0366006 179.818209,46.5802601 179.818209,41.0482513 C179.818209,35.5162425 184.349395,30.9830686 189.878977,30.9830686 C195.40856,30.9830686 199.862946,35.5162425 199.862946,41.0482513 C199.862946,46.5802601 195.33176,51.0366006 189.878977,51.0366006 Z" id="path457809"></path>
        </g>
        <text id="collective" font-family="STHeitiTC-Light, Heiti TC" font-size="60" font-weight="300" fill="#FFFFFF">
            <tspan x="228.24" y="63">collective</tspan>
        </text>
    </g>
</svg>