<?xml version="1.0" encoding="UTF-8"?>
<svg width="468px" height="72px" viewBox="0 0 468 72" version="1.1" xmlns="http://www.w3.org/2000/svg" xmlns:xlink="http://www.w3.org/1999/xlink">
    <!-- Generator: Sketch 43.2 (39069) - http://www.bohemiancoding.com/sketch -->
    <title>Slice 3</title>
    <desc>Created with Sketch.</desc>
    <defs>
        <linearGradient x1="50%" y1="0%" x2="50%" y2="100%" id="linearGradient-1">
            <stop stop-color="#FF0000" offset="0%"></stop>
            <stop stop-color="#C50202" offset="100%"></stop>
        </linearGradient>
    </defs>
    <g id="Page-1" stroke="none" stroke-width="1" fill="none" fill-rule="evenodd">
        <g id="logo" transform="translate(2.000000, 2.000000)" fill-rule="nonzero" fill="url(#linearGradient-1)">
            <path d="M1.44253128,42.1892505 C2.42607534,44.4097374 3.73746741,46.434299 5.44227711,48.1323183 C7.21265641,49.8303377 9.17974452,51.2018149 11.409111,52.116133 C13.7040472,53.0957596 16.1956921,53.5529186 18.6873371,53.5529186 C21.178982,53.5529186 23.6706269,53.0957596 25.9655631,52.116133 C28.1949296,51.2018149 30.1620177,49.8303377 31.932397,48.1323183 C33.6372067,46.434299 34.9485988,44.4097374 35.9321428,42.1892505 C36.9156869,39.9034552 37.3746741,37.487043 37.3746741,34.940014 L37.3746741,3.26542187 L27.5392336,0 L27.5392336,18.5475962 C27.0146767,18.2863625 26.4901199,18.0251287 25.9655631,17.8292034 C23.6706269,16.8495768 21.2445516,16.3924178 18.6873371,16.3924178 C16.1956921,16.3924178 13.7040472,16.8495768 11.409111,17.8292034 C9.17974452,18.7435215 7.21265641,20.1149987 5.44227711,21.8130181 C3.73746741,23.5110374 2.42607534,25.535599 1.44253128,27.7560859 C0.52455683,30.0418812 0,32.4582934 0,34.940014 C0,37.487043 0.52455683,39.9034552 1.44253128,42.1892505 L1.44253128,42.1892505 Z M18.6873371,26.1233749 C23.5394877,26.1233749 27.5392336,30.1071896 27.5392336,34.940014 C27.5392336,39.8381468 23.5394877,43.756653 18.6873371,43.756653 C13.8351864,43.756653 9.83544056,39.8381468 9.83544056,34.940014 C9.83544056,30.1071896 13.8351864,26.1233749 18.6873371,26.1233749 Z" id="path457799"></path>
            <polygon id="path457801" points="42.8684211 53.4969218 52.7694312 53.4969218 52.7694312 15.8139535 42.8684211 19.0793754"></polygon>
            <polygon id="path457803" points="68.8011866 53.7721484 76.997387 53.7721484 91.8816871 17.3953488 81.1938417 17.3953488 72.9320716 38.5552825 64.7358711 17.3953488 53.9824561 17.3953488"></polygon>
            <polygon id="path457805" points="92.8815789 53.4969218 102.782589 53.4969218 102.782589 15.8139535 92.8815789 19.0793754"></polygon>
            <path d="M136.159842,22.4171021 C133.012501,19.3476055 128.881616,17.6495862 124.488452,17.6495862 C122.127947,17.6495862 119.89858,18.1067452 117.865922,19.0210633 L117.865922,16.6046512 L108.030482,16.6046512 L108.030482,32.6052183 C107.964912,33.1276858 107.964912,33.5848449 107.964912,34.1073124 L108.030482,34.1073124 L108.030482,53.3733014 L117.865922,53.3733014 L117.865922,33.1276858 C118.32491,29.9275724 121.078833,27.4458518 124.488452,27.4458518 C128.16035,27.4458518 131.176552,30.4500399 131.176552,34.1073124 L131.176552,53.3733014 L141.011993,53.3733014 L141.011993,34.1073124 C141.011993,29.6663386 139.241613,25.5519071 136.159842,22.4171021 L136.159842,22.4171021 Z" id="path457807"></path>
            <path d="M175.096437,21.959943 C171.621248,18.4985958 166.965806,16.6046512 162.113655,16.6046512 C157.195935,16.6046512 152.540493,18.4985958 149.065304,21.959943 C145.590115,25.4212902 143.688596,29.9928808 143.688596,34.8910136 C143.688596,39.7891464 145.590115,44.360737 149.065304,47.8220842 C152.540493,51.2834314 157.195935,53.1773761 162.113655,53.1773761 C164.998718,53.1773761 167.818211,52.5242917 170.309856,51.2834314 C169.326312,54.8753955 165.982262,57.4877329 162.113655,57.4877329 C159.884289,57.4877329 157.786061,56.6387233 156.212391,55.1366292 L149.393152,62.2552489 C152.868341,65.5206707 157.327074,67.2839985 162.048086,67.2839985 C166.965806,67.2839985 171.621248,65.3900539 175.096437,61.9287067 C178.571626,58.4673595 180.473144,53.8957689 180.473144,48.9976361 L180.473144,34.8910136 C180.473144,29.9928808 178.571626,25.4212902 175.096437,21.959943 L175.096437,21.959943 Z M162.113655,43.3811105 C157.392644,43.3811105 153.524037,39.5932211 153.524037,34.8910136 C153.524037,30.1888061 157.392644,26.3356083 162.113655,26.3356083 C166.834667,26.3356083 170.637704,30.1888061 170.637704,34.8910136 C170.637704,39.5932211 166.769097,43.3811105 162.113655,43.3811105 Z" id="path457809"></path>
        </g>
        <text id="collective" font-family="STHeitiTC-Light, Heiti TC" font-size="60" font-weight="300" fill="#2C2C2C">
            <tspan x="184.24" y="56">collective</tspan>
        </text>
    </g>
</svg>