<?xml version="1.0" encoding="UTF-8"?>
<svg width="520px" height="102px" viewBox="0 0 520 102" version="1.1" xmlns="http://www.w3.org/2000/svg" xmlns:xlink="http://www.w3.org/1999/xlink">
    <!-- Generator: Sketch 43.2 (39069) - http://www.bohemiancoding.com/sketch -->
    <title>logo</title>
    <desc>Created with Sketch.</desc>
    <defs>
        <linearGradient x1="50%" y1="0%" x2="50%" y2="98.7982302%" id="linearGradient-1">
            <stop stop-color="#E00000" offset="0%"></stop>
            <stop stop-color="#BE0000" offset="100%"></stop>
        </linearGradient>
    </defs>
    <g id="Page-1" stroke="none" stroke-width="1" fill="none" fill-rule="evenodd">
        <g id="logo" fill-rule="nonzero">
            <path d="M2.18425191,64.2047725 C3.67351208,67.5804289 5.6591923,70.6582332 8.24057659,73.2396175 C10.9212449,75.8210018 13.8997652,77.9059661 17.2754216,79.2959422 C20.750362,80.7852024 24.5231544,81.4801905 28.2959469,81.4801905 C32.0687393,81.4801905 35.8415317,80.7852024 39.3164721,79.2959422 C42.6921285,77.9059661 45.6706488,75.8210018 48.3513171,73.2396175 C50.9327014,70.6582332 52.9183816,67.5804289 54.4076418,64.2047725 C55.896902,60.7298321 56.59189,57.0563237 56.59189,53.1842473 L56.59189,5.03150185 L41.6992884,0.0673012864 L41.6992884,28.2639605 C40.9050163,27.8668244 40.1107442,27.4696884 39.3164721,27.1718363 C35.8415317,25.6825762 32.1680233,24.9875881 28.2959469,24.9875881 C24.5231544,24.9875881 20.750362,25.6825762 17.2754216,27.1718363 C13.8997652,28.5618125 10.9212449,30.6467767 8.24057659,33.228161 C5.6591923,35.8095453 3.67351208,38.8873497 2.18425191,42.263006 C0.794275754,45.7379464 3.66437598e-06,49.4114549 3.66437598e-06,53.1842473 C3.66437598e-06,57.0563237 0.794275754,60.7298321 2.18425191,64.2047725 L2.18425191,64.2047725 Z M28.2959469,39.7809058 C35.6429637,39.7809058 41.6992884,45.8372304 41.6992884,53.1842473 C41.6992884,60.6305481 35.6429637,66.5875888 28.2959469,66.5875888 C20.94893,66.5875888 14.8926053,60.6305481 14.8926053,53.1842473 C14.8926053,45.8372304 20.94893,39.7809058 28.2959469,39.7809058 Z" id="path457799" fill="#FFFFFF"></path>
            <polygon id="path457801" fill="#FFFFFF" points="64.6618186 80.7852024 79.6537043 80.7852024 79.6537043 23.4983279 64.6618186 28.4625285"></polygon>
            <polygon id="path457803" fill="#FFFFFF" points="103.793688 80.7852024 116.204189 80.7852024 138.74166 25.4840082 122.558366 25.4840082 110.04858 57.6520278 97.638079 25.4840082 81.3555012 25.4840082"></polygon>
            <polygon id="path457805" fill="#FFFFFF" points="140.482232 80.7852024 155.474118 80.7852024 155.474118 23.4983279 140.482232 28.4625285"></polygon>
            <path d="M206.817907,33.7245811 C202.052274,29.0582326 195.797382,26.4768483 189.145353,26.4768483 C185.571128,26.4768483 182.195472,27.1718363 179.117668,28.5618125 L179.117668,24.8883041 L164.225066,24.8883041 L164.225066,49.2128868 C164.125782,50.0071589 164.125782,50.702147 164.125782,51.4964191 L164.225066,51.4964191 L164.225066,80.7852024 L179.117668,80.7852024 L179.117668,50.0071589 C179.812656,45.1422424 183.982584,41.3694499 189.145353,41.3694499 C194.705258,41.3694499 199.272322,45.9365145 199.272322,51.4964191 L199.272322,80.7852024 L214.164924,80.7852024 L214.164924,51.4964191 C214.164924,44.7451063 211.484255,38.4902136 206.817907,33.7245811 L206.817907,33.7245811 Z" id="path457807" fill="#FFFFFF"></path>
            <path d="M265.412545,33.029593 C260.150492,27.7675404 253.101327,24.8883041 245.754311,24.8883041 C238.30801,24.8883041 231.258845,27.7675404 225.996792,33.029593 C220.73474,38.2916456 217.855503,45.2415264 217.855503,52.6878272 C217.855503,60.1341281 220.73474,67.0840088 225.996792,72.3460614 C231.258845,77.608114 238.30801,80.4873504 245.754311,80.4873504 C250.122807,80.4873504 254.39202,79.4945102 258.164812,77.608114 C256.675552,83.0687346 251.612067,87.0400951 245.754311,87.0400951 C242.378654,87.0400951 239.201566,85.749403 236.81875,83.4658707 L226.493212,94.2878279 C231.755265,99.2520285 238.506578,101.932697 245.655027,101.932697 C253.101327,101.932697 260.150492,99.0534605 265.412545,93.7914079 C270.674597,88.5293553 273.553834,81.5794745 273.553834,74.1331736 L273.553834,52.6878272 C273.553834,45.2415264 270.674597,38.2916456 265.412545,33.029593 L265.412545,33.029593 Z M245.754311,65.5947487 C238.605862,65.5947487 232.748105,59.836276 232.748105,52.6878272 C232.748105,45.5393784 238.605862,39.6816218 245.754311,39.6816218 C252.902759,39.6816218 258.661232,45.5393784 258.661232,52.6878272 C258.661232,59.836276 252.803475,65.5947487 245.754311,65.5947487 Z" id="path457809" fill="#FFFFFF"></path>
            <path d="M301.513135,81.3809065 C311.54082,81.3809065 319.682109,73.2396175 319.682109,63.2119324 C319.682109,53.1842473 311.54082,45.0429584 301.513135,45.0429584 L297.343207,45.0429584 C295.853947,45.0429584 294.761822,43.8515502 294.761822,42.4615741 C294.761822,40.9723139 295.853947,39.7809058 297.343207,39.7809058 L318.093565,39.7809058 L318.093565,24.193316 L297.343207,24.193316 C287.315522,24.193316 279.174233,32.4338889 279.174233,42.4615741 C279.174233,52.4892592 287.315522,60.6305481 297.343207,60.6305481 L301.513135,60.6305481 C302.903111,60.6305481 304.094519,61.8219563 304.094519,63.2119324 C304.094519,64.7011926 302.903111,65.7933167 301.513135,65.7933167 L278.280677,65.7933167 L278.280677,81.3809065 L301.513135,81.3809065 Z" id="path457811" fill="url(#linearGradient-1)"></path>
            <path d="M349.616239,81.5794745 C358.849652,81.5794745 367.586645,77.01241 372.947981,69.2682571 L360.636764,60.8291161 C358.154664,64.5026246 353.984735,66.6868728 349.616239,66.6868728 C342.169938,66.6868728 336.212897,60.6305481 336.212897,53.2835313 C336.212897,45.8372304 342.169938,39.8801898 349.616239,39.8801898 C353.885451,39.8801898 358.05538,41.965154 360.53748,45.5393784 L372.749413,37.0009535 C370.168029,33.327445 366.693089,30.3489247 362.821012,28.2639605 C358.750368,26.0797122 354.183303,24.9875881 349.616239,24.9875881 C345.744162,24.9875881 342.070654,25.6825762 338.595713,27.1718363 C335.220057,28.6610965 332.142253,30.6467767 329.560868,33.228161 C326.979484,35.9088293 324.89452,38.8873497 323.504544,42.263006 C322.015283,45.7379464 321.320295,49.5107389 321.320295,53.2835313 C321.320295,57.0563237 322.015283,60.8291161 323.504544,64.3040565 C324.89452,67.6797129 326.979484,70.6582332 329.560868,73.3389016 C332.142253,75.9202858 335.220057,77.9059661 338.595713,79.3952262 C342.070654,80.7852024 345.744162,81.5794745 349.616239,81.5794745 L349.616239,81.5794745 Z" id="path457813" fill="url(#linearGradient-1)"></path>
            <path d="M401.391306,81.4801905 C405.164098,81.4801905 408.936891,80.6859184 412.411831,79.2959422 C415.787488,77.8066821 418.865292,75.8210018 421.446676,73.2396175 C424.028061,70.5589492 426.013741,67.5804289 427.503001,64.2047725 C428.992261,60.7298321 429.687249,56.9570397 429.687249,53.1842473 C429.687249,49.3121708 428.992261,45.6386624 427.503001,42.163722 C426.013741,38.7880657 424.028061,35.7102613 421.446676,33.128877 C418.766008,30.5474927 415.787488,28.5618125 412.411831,27.0725523 C408.936891,25.5832922 405.164098,24.8883041 401.391306,24.8883041 C397.618514,24.8883041 393.845721,25.5832922 390.370781,27.0725523 C386.995124,28.5618125 384.016604,30.5474927 381.335936,33.128877 C378.754551,35.8095453 376.768871,38.7880657 375.279611,42.163722 C373.889635,45.6386624 373.095363,49.3121708 373.095363,53.1842473 C373.095363,56.9570397 373.889635,60.7298321 375.279611,64.2047725 C376.768871,67.5804289 378.754551,70.5589492 381.335936,73.2396175 C384.016604,75.8210018 386.995124,77.8066821 390.370781,79.2959422 C393.845721,80.6859184 397.618514,81.4801905 401.391306,81.4801905 Z M401.391306,39.7809058 C408.738323,39.7809058 414.794648,45.8372304 414.794648,53.1842473 C414.794648,60.5312641 408.738323,66.5875888 401.391306,66.5875888 C394.044289,66.5875888 387.987965,60.5312641 387.987965,53.1842473 C387.987965,45.8372304 394.044289,39.7809058 401.391306,39.7809058 Z" id="path457815" fill="url(#linearGradient-1)"></path>
            <path d="M449.916367,80.7852024 L449.916367,56.3613356 C449.916367,46.8300706 457.660519,38.9866337 467.291068,38.9866337 L467.291068,24.094032 C462.922572,24.094032 458.653359,24.9875881 454.681999,26.6754163 C450.909207,28.2639605 447.434266,30.6467767 444.455746,33.6252971 C441.477226,36.5045334 439.193693,39.9794738 437.505865,43.8515502 C435.818037,47.8229107 435.023765,51.9928391 435.023765,56.3613356 L435.023765,80.7852024 L449.916367,80.7852024 Z" id="path457817" fill="url(#linearGradient-1)"></path>
            <path d="M492.101205,81.1823384 C495.973282,81.1823384 499.746074,80.3880663 503.320298,78.7995222 C506.795239,77.310262 509.873043,75.1260138 512.454427,72.4453455 L501.930322,62.5169443 C499.348938,65.2968966 495.873998,66.7861568 492.101205,66.7861568 C487.236289,66.7861568 482.967076,64.2047725 480.58426,60.4319801 L520.000012,60.4319801 L520.000012,53.1842473 C520.000012,45.7379464 517.120776,38.6887816 511.858723,33.426729 C506.596671,28.1646765 499.547506,25.1861561 492.101205,25.1861561 C484.55562,25.1861561 477.60574,28.1646765 472.244403,33.426729 C466.98235,38.6887816 464.103114,45.7379464 464.103114,53.1842473 C464.103114,60.6305481 466.98235,67.6797129 472.244403,72.9417655 C477.60574,78.2038181 484.55562,81.1823384 492.101205,81.1823384 Z M480.58426,46.0357985 C482.967076,42.163722 487.236289,39.5823377 492.101205,39.5823377 C496.866838,39.5823377 501.13605,42.163722 503.61815,46.0357985 L480.58426,46.0357985 Z" id="path457819" fill="url(#linearGradient-1)"></path>
        </g>
    </g>
</svg>