<?xml version="1.0" encoding="UTF-8"?>
<svg width="525px" height="107px" viewBox="0 0 525 107" version="1.1" xmlns="http://www.w3.org/2000/svg" xmlns:xlink="http://www.w3.org/1999/xlink">
    <!-- Generator: Sketch 43.2 (39069) - http://www.bohemiancoding.com/sketch -->
    <title>Slice 4</title>
    <desc>Created with Sketch.</desc>
    <defs>
        <linearGradient x1="50%" y1="0%" x2="50%" y2="98.7982302%" id="linearGradient-1">
            <stop stop-color="#E00000" offset="0%"></stop>
            <stop stop-color="#BE0000" offset="100%"></stop>
        </linearGradient>
    </defs>
    <g id="Page-1" stroke="none" stroke-width="1" fill="none" fill-rule="evenodd">
        <path d="M4.18424825,66.1374712 C5.67350841,69.5131276 7.65918864,72.590932 10.2405729,75.1723163 C12.9212412,77.7537005 15.8997616,79.8386648 19.2754179,81.2286409 C22.7503583,82.7179011 26.5231508,83.4128892 30.2959432,83.4128892 C34.0687356,83.4128892 37.841528,82.7179011 41.3164684,81.2286409 C44.6921248,79.8386648 47.6706452,77.7537005 50.3513135,75.1723163 C52.9326977,72.590932 54.918378,69.5131276 56.4076381,66.1374712 C57.8968983,62.6625308 58.5918864,58.9890224 58.5918864,55.116946 L58.5918864,6.96420056 L43.6992847,2 L43.6992847,30.1966592 C42.9050126,29.7995231 42.1107405,29.4023871 41.3164684,29.1045351 C37.841528,27.6152749 34.1680196,26.9202868 30.2959432,26.9202868 C26.5231508,26.9202868 22.7503583,27.6152749 19.2754179,29.1045351 C15.8997616,30.4945112 12.9212412,32.5794754 10.2405729,35.1608597 C7.65918864,37.742244 5.67350841,40.8200484 4.18424825,44.1957048 C2.79427209,47.6706452 2,51.3441536 2,55.116946 C2,58.9890224 2.79427209,62.6625308 4.18424825,66.1374712 L4.18424825,66.1374712 Z M30.2959432,41.7136045 C37.64296,41.7136045 43.6992847,47.7699292 43.6992847,55.116946 C43.6992847,62.5632468 37.64296,68.5202875 30.2959432,68.5202875 C22.9489264,68.5202875 16.8926017,62.5632468 16.8926017,55.116946 C16.8926017,47.7699292 22.9489264,41.7136045 30.2959432,41.7136045 Z" id="path457799" fill="#000000" fill-rule="nonzero"></path>
        <polygon id="path457801" fill="#000000" fill-rule="nonzero" points="66 83.2868745 80.9918857 83.2868745 80.9918857 26 66 30.9642006"></polygon>
        <polygon id="path457803" fill="#000000" fill-rule="nonzero" points="105.438187 83.3011942 117.848688 83.3011942 140.386158 28 124.202865 28 111.693079 60.1680196 99.2825778 28 83 28"></polygon>
        <polygon id="path457805" fill="#000000" fill-rule="nonzero" points="142 83.2868745 156.991886 83.2868745 156.991886 26 142 30.9642006"></polygon>
        <path d="M208.692125,35.836277 C203.926492,31.1699285 197.6716,28.5885442 191.019571,28.5885442 C187.445346,28.5885442 184.06969,29.2835323 180.991886,30.6735084 L180.991886,27 L166.099284,27 L166.099284,51.3245827 C166,52.1188548 166,52.8138429 166,53.608115 L166.099284,53.608115 L166.099284,82.8968983 L180.991886,82.8968983 L180.991886,52.1188548 C181.686874,47.2539383 185.856802,43.4811459 191.019571,43.4811459 C196.579475,43.4811459 201.14654,48.0482104 201.14654,53.608115 L201.14654,82.8968983 L216.039142,82.8968983 L216.039142,53.608115 C216.039142,46.8568022 213.358473,40.6019095 208.692125,35.836277 L208.692125,35.836277 Z" id="path457807" fill="#000000" fill-rule="nonzero"></path>
        <path d="M267.557041,35.1412889 C262.294989,29.8792363 255.245824,27 247.898807,27 C240.452506,27 233.403342,29.8792363 228.141289,35.1412889 C222.879236,40.4033415 220,47.3532223 220,54.7995231 C220,62.245824 222.879236,69.1957048 228.141289,74.4577574 C233.403342,79.7198099 240.452506,82.5990463 247.898807,82.5990463 C252.267304,82.5990463 256.536516,81.6062062 260.309309,79.7198099 C258.820048,85.1804306 253.756564,89.151791 247.898807,89.151791 C244.523151,89.151791 241.346062,87.8610989 238.963246,85.5775666 L228.637709,96.3995238 C233.899762,101.363724 240.651074,104.044393 247.799523,104.044393 C255.245824,104.044393 262.294989,101.165156 267.557041,95.9031038 C272.819094,90.6410512 275.69833,83.6911704 275.69833,76.2448696 L275.69833,54.7995231 C275.69833,47.3532223 272.819094,40.4033415 267.557041,35.1412889 L267.557041,35.1412889 Z M247.898807,67.7064446 C240.750358,67.7064446 234.892602,61.9479719 234.892602,54.7995231 C234.892602,47.6510743 240.750358,41.7933177 247.898807,41.7933177 C255.047256,41.7933177 260.805729,47.6510743 260.805729,54.7995231 C260.805729,61.9479719 254.947972,67.7064446 247.898807,67.7064446 Z" id="path457809" fill="#000000" fill-rule="nonzero"></path>
        <g id="Group" transform="translate(281.000000, 26.000000)" fill-rule="nonzero" fill="url(#linearGradient-1)">
            <path d="M23.2324586,57.1875905 C33.2601438,57.1875905 41.4014327,49.0463015 41.4014327,39.0186164 C41.4014327,28.9909313 33.2601438,20.8496424 23.2324586,20.8496424 L19.0625302,20.8496424 C17.57327,20.8496424 16.4811459,19.6582342 16.4811459,18.2682581 C16.4811459,16.7789979 17.57327,15.5875898 19.0625302,15.5875898 L39.8128885,15.5875898 L39.8128885,0 L19.0625302,0 C9.03484502,0 0.893556101,8.24057293 0.893556101,18.2682581 C0.893556101,28.2959432 9.03484502,36.4372321 19.0625302,36.4372321 L23.2324586,36.4372321 C24.6224348,36.4372321 25.8138429,37.6286402 25.8138429,39.0186164 C25.8138429,40.5078766 24.6224348,41.6000007 23.2324586,41.6000007 L0,41.6000007 L0,57.1875905 L23.2324586,57.1875905 Z" id="path457811"></path>
            <path d="M72.2959432,56.5918864 C81.5293562,56.5918864 90.2663492,52.0248219 95.6276858,44.280669 L83.3164684,35.841528 C80.8343682,39.5150365 76.6644397,41.6992847 72.2959432,41.6992847 C64.8496424,41.6992847 58.8926017,35.64296 58.8926017,28.2959432 C58.8926017,20.8496424 64.8496424,14.8926017 72.2959432,14.8926017 C76.5651557,14.8926017 80.7350841,16.9775659 83.2171844,20.5517903 L95.4291178,12.0133654 C92.8477335,8.33985694 89.3727931,5.3613366 85.5007167,3.27637237 C81.4300722,1.09212412 76.8630077,0 72.2959432,0 C68.4238668,0 64.7503583,0.694988078 61.2754179,2.18424825 C57.8997616,3.67350841 54.8219572,5.65918864 52.2405729,8.24057293 C49.6591886,10.9212412 47.5742244,13.8997616 46.1842482,17.2754179 C44.6949881,20.7503583 44,24.5231508 44,28.2959432 C44,32.0687356 44.6949881,35.841528 46.1842482,39.3164684 C47.5742244,42.6921248 49.6591886,45.6706452 52.2405729,48.3513135 C54.8219572,50.9326977 57.8997616,52.918378 61.2754179,54.4076381 C64.7503583,55.7976143 68.4238668,56.5918864 72.2959432,56.5918864 L72.2959432,56.5918864 Z" id="path457813"></path>
            <path d="M123.295943,56.5918864 C127.068736,56.5918864 130.841528,55.7976143 134.316468,54.4076381 C137.692125,52.918378 140.769929,50.9326977 143.351313,48.3513135 C145.932698,45.6706452 147.918378,42.6921248 149.407638,39.3164684 C150.896898,35.841528 151.591886,32.0687356 151.591886,28.2959432 C151.591886,24.4238668 150.896898,20.7503583 149.407638,17.2754179 C147.918378,13.8997616 145.932698,10.8219572 143.351313,8.24057293 C140.670645,5.65918864 137.692125,3.67350841 134.316468,2.18424825 C130.841528,0.694988078 127.068736,0 123.295943,0 C119.523151,0 115.750358,0.694988078 112.275418,2.18424825 C108.899762,3.67350841 105.921241,5.65918864 103.240573,8.24057293 C100.659189,10.9212412 98.6735084,13.8997616 97.1842482,17.2754179 C95.7942721,20.7503583 95,24.4238668 95,28.2959432 C95,32.0687356 95.7942721,35.841528 97.1842482,39.3164684 C98.6735084,42.6921248 100.659189,45.6706452 103.240573,48.3513135 C105.921241,50.9326977 108.899762,52.918378 112.275418,54.4076381 C115.750358,55.7976143 119.523151,56.5918864 123.295943,56.5918864 Z M123.295943,14.8926017 C130.64296,14.8926017 136.699285,20.9489264 136.699285,28.2959432 C136.699285,35.64296 130.64296,41.6992847 123.295943,41.6992847 C115.948926,41.6992847 109.892602,35.64296 109.892602,28.2959432 C109.892602,20.9489264 115.948926,14.8926017 123.295943,14.8926017 Z" id="path457815"></path>
            <path d="M171.892602,56.6911704 L171.892602,32.2673036 C171.892602,22.7360386 179.636755,14.8926017 189.267304,14.8926017 L189.267304,0 C184.898807,0 180.629595,0.893556101 176.658234,2.58138429 C172.885442,4.16992847 169.410501,6.55274474 166.431981,9.53126508 C163.453461,12.4105014 161.169928,15.8854418 159.4821,19.7575182 C157.794272,23.7288787 157,27.8988071 157,32.2673036 L157,56.6911704 L171.892602,56.6911704 Z" id="path457817"></path>
            <path d="M213.998091,56.9961823 C217.870168,56.9961823 221.64296,56.2019102 225.217184,54.613366 C228.692125,53.1241059 231.769929,50.9398576 234.351313,48.2591893 L223.827208,38.3307882 C221.245824,41.1107405 217.770884,42.6000007 213.998091,42.6000007 C209.133175,42.6000007 204.863962,40.0186164 202.481146,36.245824 L241.896898,36.245824 L241.896898,28.9980912 C241.896898,21.5517903 239.017662,14.5026255 233.755609,9.24057293 C228.493557,3.97852034 221.444392,1 213.998091,1 C206.452506,1 199.502626,3.97852034 194.141289,9.24057293 C188.879236,14.5026255 186,21.5517903 186,28.9980912 C186,36.444392 188.879236,43.4935568 194.141289,48.7556094 C199.502626,54.017662 206.452506,56.9961823 213.998091,56.9961823 Z M202.481146,21.8496424 C204.863962,17.9775659 209.133175,15.3961816 213.998091,15.3961816 C218.763724,15.3961816 223.032936,17.9775659 225.515036,21.8496424 L202.481146,21.8496424 Z" id="path457819"></path>
        </g>
    </g>
</svg>