<?xml version="1.0" encoding="UTF-8"?>
<svg width="430px" height="86px" viewBox="0 0 430 86" version="1.1" xmlns="http://www.w3.org/2000/svg" xmlns:xlink="http://www.w3.org/1999/xlink">
    <!-- Generator: Sketch 43.2 (39069) - http://www.bohemiancoding.com/sketch -->
    <title>Slice 3</title>
    <desc>Created with Sketch.</desc>
    <defs>
        <linearGradient x1="50%" y1="0%" x2="50%" y2="100%" id="linearGradient-1">
            <stop stop-color="#FF0000" offset="0%"></stop>
            <stop stop-color="#C50202" offset="100%"></stop>
        </linearGradient>
    </defs>
    <g id="Page-1" stroke="none" stroke-width="1" fill="none" fill-rule="evenodd">
        <g id="logo" transform="translate(3.000000, 0.000000)" fill-rule="nonzero" fill="url(#linearGradient-1)">
            <path d="M1.81711123,53.3569933 C3.0560507,56.1652561 4.70797,58.725731 6.85546509,60.8732261 C9.08555614,63.0207212 11.5634351,64.7552365 14.3716979,65.91158 C17.2625567,67.1505195 20.4012033,67.7286912 23.53985,67.7286912 C26.6784967,67.7286912 29.8171433,67.1505195 32.7080021,65.91158 C35.5162649,64.7552365 37.9941438,63.0207212 40.2242349,60.8732261 C42.37173,58.725731 44.0236493,56.1652561 45.2625888,53.3569933 C46.5015282,50.4661345 47.0797,47.4100838 47.0797,44.1888412 L47.0797,4.12979824 L34.6903053,0 L34.6903053,23.457254 C34.0295375,23.1268702 33.3687698,22.7964863 32.7080021,22.5486984 C29.8171433,21.3097589 26.7610926,20.7315872 23.53985,20.7315872 C20.4012033,20.7315872 17.2625567,21.3097589 14.3716979,22.5486984 C11.5634351,23.7050419 9.08555614,25.4395572 6.85546509,27.5870523 C4.70797,29.7345474 3.0560507,32.2950223 1.81711123,35.1032851 C0.660767719,37.9941438 0,41.0501945 0,44.1888412 C0,47.4100838 0.660767719,50.4661345 1.81711123,53.3569933 L1.81711123,53.3569933 Z M23.53985,33.038386 C29.6519514,33.038386 34.6903053,38.0767398 34.6903053,44.1888412 C34.6903053,50.3835386 29.6519514,55.3392965 23.53985,55.3392965 C17.4277486,55.3392965 12.3893947,50.3835386 12.3893947,44.1888412 C12.3893947,38.0767398 17.4277486,33.038386 23.53985,33.038386 Z" id="path457799"></path>
            <polygon id="path457801" points="54 67.6578717 66.4719907 67.6578717 66.4719907 20 54 24.1297982"></polygon>
            <polygon id="path457803" points="86.6666881 68.0059524 96.9911837 68.0059524 115.740468 22 102.277325 22 91.8702339 48.7610926 81.5457382 22 68 22"></polygon>
            <polygon id="path457805" points="117 67.6578717 129.471991 67.6578717 129.471991 20 117 24.1297982"></polygon>
            <path d="M171.516265,28.3510409 C167.551659,24.4690305 162.348113,22.3215354 156.814183,22.3215354 C153.840728,22.3215354 151.032466,22.8997072 148.471991,24.0560507 L148.471991,21 L136.082596,21 L136.082596,41.2360114 C136,41.8967791 136,42.4749509 136,43.1357186 L136.082596,43.1357186 L136.082596,67.5015282 L148.471991,67.5015282 L148.471991,41.8967791 C149.050162,37.8495768 152.519193,34.7109302 156.814183,34.7109302 C161.439557,34.7109302 165.238972,38.5103446 165.238972,43.1357186 L165.238972,67.5015282 L177.628366,67.5015282 L177.628366,43.1357186 C177.628366,37.519193 175.398275,32.3156472 171.516265,28.3510409 L171.516265,28.3510409 Z" id="path457807"></path>
            <path d="M220.563467,27.7728691 C216.185881,23.395283 210.321568,21 204.209466,21 C198.014769,21 192.150455,23.395283 187.772869,27.7728691 C183.395283,32.1504553 181,37.9321728 181,44.1268702 C181,50.3215675 183.395283,56.1032851 187.772869,60.4808712 C192.150455,64.8584574 198.014769,67.2537403 204.209466,67.2537403 C207.843689,67.2537403 211.395315,66.4277807 214.533962,64.8584574 C213.295022,69.4012354 209.082628,72.705074 204.209466,72.705074 C201.401203,72.705074 198.758132,71.6313265 196.775829,69.7316193 L188.185849,78.7345795 C192.563435,82.8643777 198.179961,85.0944688 204.12687,85.0944688 C210.321568,85.0944688 216.185881,82.6991858 220.563467,78.3215996 C224.941053,73.9440135 227.336336,68.162296 227.336336,61.9675986 L227.336336,44.1268702 C227.336336,37.9321728 224.941053,32.1504553 220.563467,27.7728691 L220.563467,27.7728691 Z M204.209466,54.8643456 C198.262557,54.8643456 193.389395,50.0737796 193.389395,44.1268702 C193.389395,38.1799607 198.262557,33.3067988 204.209466,33.3067988 C210.156376,33.3067988 214.946942,38.1799607 214.946942,44.1268702 C214.946942,50.0737796 210.07378,54.8643456 204.209466,54.8643456 Z" id="path457809"></path>
        </g>
        <text id="collective" font-family="STHeitiTC-Light, Heiti TC" font-size="42" font-weight="300" fill="#2C2C2C">
            <tspan x="233.418" y="69">collective</tspan>
        </text>
    </g>
</svg>