<?xml version="1.0" encoding="UTF-8"?>
<svg width="274px" height="120px" viewBox="0 0 274 120" version="1.1" xmlns="http://www.w3.org/2000/svg" xmlns:xlink="http://www.w3.org/1999/xlink">
    <!-- Generator: Sketch 43.2 (39069) - http://www.bohemiancoding.com/sketch -->
    <title>Slice 3</title>
    <desc>Created with Sketch.</desc>
    <defs></defs>
    <g id="Page-1" stroke="none" stroke-width="1" fill="none" fill-rule="evenodd">
        <g id="logo" fill-rule="nonzero" fill="#A00000">
            <path d="M2.18425191,64.2047725 C3.67351208,67.5804289 5.6591923,70.6582332 8.24057659,73.2396175 C10.9212449,75.8210018 13.8997652,77.9059661 17.2754216,79.2959422 C20.750362,80.7852024 24.5231544,81.4801905 28.2959469,81.4801905 C32.0687393,81.4801905 35.8415317,80.7852024 39.3164721,79.2959422 C42.6921285,77.9059661 45.6706488,75.8210018 48.3513171,73.2396175 C50.9327014,70.6582332 52.9183816,67.5804289 54.4076418,64.2047725 C55.896902,60.7298321 56.59189,57.0563237 56.59189,53.1842473 L56.59189,5.03150185 L41.6992884,0.0673012864 L41.6992884,28.2639605 C40.9050163,27.8668244 40.1107442,27.4696884 39.3164721,27.1718363 C35.8415317,25.6825762 32.1680233,24.9875881 28.2959469,24.9875881 C24.5231544,24.9875881 20.750362,25.6825762 17.2754216,27.1718363 C13.8997652,28.5618125 10.9212449,30.6467767 8.24057659,33.228161 C5.6591923,35.8095453 3.67351208,38.8873497 2.18425191,42.263006 C0.794275754,45.7379464 3.66437598e-06,49.4114549 3.66437598e-06,53.1842473 C3.66437598e-06,57.0563237 0.794275754,60.7298321 2.18425191,64.2047725 L2.18425191,64.2047725 Z M28.2959469,39.7809058 C35.6429637,39.7809058 41.6992884,45.8372304 41.6992884,53.1842473 C41.6992884,60.6305481 35.6429637,66.5875888 28.2959469,66.5875888 C20.94893,66.5875888 14.8926053,60.6305481 14.8926053,53.1842473 C14.8926053,45.8372304 20.94893,39.7809058 28.2959469,39.7809058 Z" id="path457799"></path>
            <polygon id="path457801" points="64.6618186 80.7852024 79.6537043 80.7852024 79.6537043 23.4983279 64.6618186 28.4625285"></polygon>
            <polygon id="path457803" points="103.793688 80.7852024 116.204189 80.7852024 138.74166 25.4840082 122.558366 25.4840082 110.04858 57.6520278 97.638079 25.4840082 81.3555012 25.4840082"></polygon>
            <polygon id="path457805" points="140.482232 80.7852024 155.474118 80.7852024 155.474118 23.4983279 140.482232 28.4625285"></polygon>
            <path d="M206.817907,33.7245811 C202.052274,29.0582326 195.797382,26.4768483 189.145353,26.4768483 C185.571128,26.4768483 182.195472,27.1718363 179.117668,28.5618125 L179.117668,24.8883041 L164.225066,24.8883041 L164.225066,49.2128868 C164.125782,50.0071589 164.125782,50.702147 164.125782,51.4964191 L164.225066,51.4964191 L164.225066,80.7852024 L179.117668,80.7852024 L179.117668,50.0071589 C179.812656,45.1422424 183.982584,41.3694499 189.145353,41.3694499 C194.705258,41.3694499 199.272322,45.9365145 199.272322,51.4964191 L199.272322,80.7852024 L214.164924,80.7852024 L214.164924,51.4964191 C214.164924,44.7451063 211.484255,38.4902136 206.817907,33.7245811 L206.817907,33.7245811 Z" id="path457807"></path>
            <path d="M265.412545,33.029593 C260.150492,27.7675404 253.101327,24.8883041 245.754311,24.8883041 C238.30801,24.8883041 231.258845,27.7675404 225.996792,33.029593 C220.73474,38.2916456 217.855503,45.2415264 217.855503,52.6878272 C217.855503,60.1341281 220.73474,67.0840088 225.996792,72.3460614 C231.258845,77.608114 238.30801,80.4873504 245.754311,80.4873504 C250.122807,80.4873504 254.39202,79.4945102 258.164812,77.608114 C256.675552,83.0687346 251.612067,87.0400951 245.754311,87.0400951 C242.378654,87.0400951 239.201566,85.749403 236.81875,83.4658707 L226.493212,94.2878279 C231.755265,99.2520285 238.506578,101.932697 245.655027,101.932697 C253.101327,101.932697 260.150492,99.0534605 265.412545,93.7914079 C270.674597,88.5293553 273.553834,81.5794745 273.553834,74.1331736 L273.553834,52.6878272 C273.553834,45.2415264 270.674597,38.2916456 265.412545,33.029593 L265.412545,33.029593 Z M245.754311,65.5947487 C238.605862,65.5947487 232.748105,59.836276 232.748105,52.6878272 C232.748105,45.5393784 238.605862,39.6816218 245.754311,39.6816218 C252.902759,39.6816218 258.661232,45.5393784 258.661232,52.6878272 C258.661232,59.836276 252.803475,65.5947487 245.754311,65.5947487 Z" id="path457809"></path>
        </g>
        <text id="collective" font-family="STHeitiTC-Light, Heiti TC" font-size="35" font-weight="300" fill="#FFFFFF">
            <tspan x="57.515" y="115">collective</tspan>
        </text>
    </g>
</svg>